<svg width="191" height="24" viewBox="0 0 191 24" fill="none" xmlns="http://www.w3.org/2000/svg">
<path d="M0.896307 23V1.18182H15.3423V4.98508H5.50923V10.1839H14.3835V13.9872H5.50923V23H0.896307ZM18.4451 23V1.18182H27.0531C28.7008 1.18182 30.1071 1.47656 31.2718 2.06605C32.4437 2.64844 33.335 3.47585 33.9458 4.5483C34.5637 5.61364 34.8727 6.86719 34.8727 8.30895C34.8727 9.75781 34.5602 11.0043 33.9352 12.0483C33.3102 13.0852 32.4047 13.8807 31.2186 14.4347C30.0396 14.9886 28.612 15.2656 26.9359 15.2656H21.1724V11.5582H26.1902C27.0708 11.5582 27.8024 11.4375 28.3848 11.196C28.9672 10.9545 29.4004 10.5923 29.6845 10.1094C29.9757 9.62642 30.1213 9.02628 30.1213 8.30895C30.1213 7.58452 29.9757 6.97372 29.6845 6.47656C29.4004 5.9794 28.9636 5.60298 28.3741 5.3473C27.7917 5.08452 27.0566 4.95312 26.1689 4.95312H23.0581V23H18.4451ZM30.2278 13.071L35.6504 23H30.5581L25.2527 13.071H30.2278ZM42.7456 1.18182V23H38.1326V1.18182H42.7456ZM46.5408 23V1.18182H61.2425V4.98508H51.1538V10.1839H60.4862V13.9872H51.1538V19.1967H61.2852V23H46.5408ZM83.1593 1.18182V23H79.1749L69.6827 9.26776H69.5229V23H64.91V1.18182H68.9583L78.3759 14.9034H78.5676V1.18182H83.1593ZM94.7049 23H86.9705V1.18182H94.7688C96.9634 1.18182 98.8526 1.61861 100.436 2.49219C102.02 3.35866 103.238 4.60511 104.091 6.23153C104.95 7.85795 105.38 9.80398 105.38 12.0696C105.38 14.3423 104.95 16.2955 104.091 17.929C103.238 19.5625 102.013 20.8161 100.415 21.6896C98.8242 22.5632 96.9208 23 94.7049 23ZM91.5835 19.0476H94.5131C95.8768 19.0476 97.0238 18.8061 97.9542 18.3232C98.8917 17.8331 99.5948 17.0767 100.064 16.054C100.539 15.0241 100.777 13.696 100.777 12.0696C100.777 10.4574 100.539 9.13991 100.064 8.11719C99.5948 7.09446 98.8952 6.34162 97.9648 5.85866C97.0344 5.37571 95.8874 5.13423 94.5238 5.13423H91.5835V19.0476ZM120.633 7.45668C120.547 6.5973 120.182 5.92969 119.535 5.45383C118.889 4.97798 118.012 4.74006 116.904 4.74006C116.151 4.74006 115.515 4.84659 114.997 5.05966C114.479 5.26562 114.081 5.55327 113.804 5.92258C113.534 6.2919 113.399 6.71094 113.399 7.17969C113.385 7.57031 113.466 7.91122 113.644 8.20241C113.829 8.49361 114.081 8.74574 114.4 8.95881C114.72 9.16477 115.089 9.34588 115.508 9.50213C115.927 9.65128 116.375 9.77912 116.851 9.88565L118.811 10.3544C119.763 10.5675 120.636 10.8516 121.432 11.2067C122.227 11.5618 122.916 11.9986 123.498 12.517C124.081 13.0355 124.532 13.6463 124.851 14.3494C125.178 15.0526 125.345 15.8587 125.352 16.7678C125.345 18.103 125.004 19.2607 124.329 20.2408C123.662 21.2138 122.696 21.9702 121.432 22.5099C120.175 23.0426 118.658 23.3089 116.883 23.3089C115.121 23.3089 113.587 23.0391 112.28 22.4993C110.981 21.9595 109.965 21.1605 109.233 20.1023C108.509 19.0369 108.129 17.7195 108.094 16.1499H112.557C112.607 16.8814 112.817 17.4922 113.186 17.9822C113.562 18.4652 114.063 18.831 114.688 19.0795C115.32 19.321 116.034 19.4418 116.829 19.4418C117.611 19.4418 118.289 19.3281 118.864 19.1009C119.447 18.8736 119.898 18.5575 120.217 18.1527C120.537 17.7479 120.697 17.2827 120.697 16.7571C120.697 16.267 120.551 15.8551 120.26 15.5213C119.976 15.1875 119.557 14.9034 119.003 14.669C118.456 14.4347 117.785 14.2216 116.989 14.0298L114.613 13.4332C112.774 12.9858 111.322 12.2862 110.256 11.3345C109.191 10.3828 108.662 9.10085 108.669 7.48864C108.662 6.16761 109.013 5.01349 109.724 4.02628C110.441 3.03906 111.425 2.26847 112.675 1.71449C113.925 1.16051 115.345 0.883522 116.936 0.883522C118.555 0.883522 119.969 1.16051 121.176 1.71449C122.39 2.26847 123.335 3.03906 124.01 4.02628C124.684 5.01349 125.032 6.15696 125.054 7.45668H120.633ZM128.455 23V1.18182H133.068V10.1839H142.432V1.18182H147.034V23H142.432V13.9872H133.068V23H128.455ZM170.887 12.0909C170.887 14.4702 170.436 16.4943 169.534 18.1634C168.64 19.8324 167.418 21.1072 165.87 21.9879C164.328 22.8615 162.596 23.2983 160.671 23.2983C158.732 23.2983 156.992 22.858 155.451 21.9773C153.909 21.0966 152.691 19.8217 151.797 18.1527C150.902 16.4837 150.454 14.4631 150.454 12.0909C150.454 9.71165 150.902 7.6875 151.797 6.01847C152.691 4.34943 153.909 3.07812 155.451 2.20455C156.992 1.32386 158.732 0.883522 160.671 0.883522C162.596 0.883522 164.328 1.32386 165.87 2.20455C167.418 3.07812 168.64 4.34943 169.534 6.01847C170.436 7.6875 170.887 9.71165 170.887 12.0909ZM166.211 12.0909C166.211 10.5497 165.98 9.25 165.518 8.19176C165.064 7.13352 164.421 6.33097 163.59 5.78409C162.759 5.23722 161.786 4.96378 160.671 4.96378C159.556 4.96378 158.583 5.23722 157.752 5.78409C156.921 6.33097 156.275 7.13352 155.813 8.19176C155.358 9.25 155.131 10.5497 155.131 12.0909C155.131 13.6321 155.358 14.9318 155.813 15.9901C156.275 17.0483 156.921 17.8509 157.752 18.3977C158.583 18.9446 159.556 19.218 160.671 19.218C161.786 19.218 162.759 18.9446 163.59 18.3977C164.421 17.8509 165.064 17.0483 165.518 15.9901C165.98 14.9318 166.211 13.6321 166.211 12.0909ZM174.305 23V1.18182H182.912C184.567 1.18182 185.977 1.49787 187.142 2.12997C188.307 2.75497 189.194 3.625 189.805 4.74006C190.423 5.84801 190.732 7.12642 190.732 8.57528C190.732 10.0241 190.42 11.3026 189.795 12.4105C189.17 13.5185 188.264 14.3814 187.078 14.9993C185.899 15.6172 184.471 15.9261 182.795 15.9261H177.309V12.2294H182.05C182.937 12.2294 183.669 12.0767 184.244 11.7713C184.827 11.4588 185.26 11.0291 185.544 10.4822C185.835 9.92827 185.981 9.29261 185.981 8.57528C185.981 7.85085 185.835 7.21875 185.544 6.67898C185.26 6.1321 184.827 5.70952 184.244 5.41122C183.662 5.10582 182.923 4.95312 182.028 4.95312H178.917V23H174.305Z" fill="white"/>
</svg>
