<svg width="40" height="40" viewBox="0 0 40 40" fill="none" xmlns="http://www.w3.org/2000/svg">
<path d="M23.3333 15V8.33334C23.3333 7.00726 22.8065 5.73549 21.8688 4.79781C20.9312 3.86013 19.6594 3.33334 18.3333 3.33334L11.6666 18.3333V36.6667H30.4666C31.2705 36.6758 32.0506 36.394 32.6632 35.8734C33.2757 35.3527 33.6794 34.6282 33.8 33.8333L36.1 18.8333C36.1725 18.3556 36.1403 17.8678 36.0055 17.4038C35.8708 16.9397 35.6368 16.5105 35.3197 16.1459C35.0027 15.7812 34.6101 15.4899 34.1693 15.292C33.7284 15.0942 33.2498 14.9945 32.7666 15H23.3333ZM11.6666 36.6667H6.66665C5.78259 36.6667 4.93474 36.3155 4.30962 35.6904C3.6845 35.0652 3.33331 34.2174 3.33331 33.3333V21.6667C3.33331 20.7826 3.6845 19.9348 4.30962 19.3097C4.93474 18.6845 5.78259 18.3333 6.66665 18.3333H11.6666" fill="#2932F8"/>
<path d="M11.6666 36.6667H6.66665C5.78259 36.6667 4.93474 36.3155 4.30962 35.6904C3.6845 35.0652 3.33331 34.2174 3.33331 33.3333V21.6667C3.33331 20.7826 3.6845 19.9348 4.30962 19.3097C4.93474 18.6845 5.78259 18.3333 6.66665 18.3333H11.6666M23.3333 15V8.33334C23.3333 7.00726 22.8065 5.73549 21.8688 4.79781C20.9312 3.86013 19.6594 3.33334 18.3333 3.33334L11.6666 18.3333V36.6667H30.4666C31.2705 36.6758 32.0506 36.394 32.6632 35.8734C33.2757 35.3527 33.6794 34.6282 33.8 33.8333L36.1 18.8333C36.1725 18.3556 36.1403 17.8678 36.0055 17.4038C35.8708 16.9397 35.6368 16.5105 35.3197 16.1459C35.0027 15.7812 34.6101 15.4899 34.1693 15.292C33.7284 15.0942 33.2498 14.9945 32.7666 15H23.3333Z" stroke="white" stroke-width="5" stroke-linecap="round" stroke-linejoin="round"/>
</svg>
